<?xml version="1.0" standalone="no"?>
<!DOCTYPE svg PUBLIC "-//W3C//DTD SVG 20010904//EN"
 "http://www.w3.org/TR/2001/REC-SVG-20010904/DTD/svg10.dtd">
<svg version="1.0" xmlns="http://www.w3.org/2000/svg"
 width="512.000000pt" height="512.000000pt" viewBox="0 0 512.000000 512.000000"
 preserveAspectRatio="xMidYMid meet">
<metadata>
Created by potrace 1.14, written by Peter Selinger 2001-2017
</metadata>
<g transform="translate(0.000000,512.000000) scale(0.100000,-0.100000)"
fill="#000000" stroke="none">
<path d="M0 2560 c0 -1680 4 -2560 10 -2560 6 0 11 75 12 198 1 108 4 155 5
105 3 -80 6 -93 21 -93 9 0 57 22 105 49 48 27 108 57 133 67 51 19 144 98
144 121 0 13 -15 14 -97 8 -54 -3 -110 -9 -125 -11 -21 -4 -28 -2 -28 11 0 13
-4 14 -21 5 -11 -7 -23 -9 -26 -6 -7 6 57 32 70 28 4 -1 7 2 7 7 0 9 127 89
199 126 19 10 82 30 140 46 112 30 387 128 484 173 39 18 81 49 126 96 38 39
75 70 82 70 7 0 2 -11 -13 -27 -39 -43 -83 -112 -118 -186 -27 -57 -58 -93
-213 -248 -190 -190 -278 -266 -400 -345 -92 -60 -288 -179 -307 -187 -8 -3
168 -6 392 -6 316 -1 407 2 411 12 4 9 6 9 6 0 1 -16 497 -18 521 -3 12 8 10
10 -8 10 -13 0 -32 5 -42 10 -10 6 -30 11 -44 12 -35 3 -39 22 -15 63 12 19
17 35 12 35 -4 0 -1 5 7 10 8 5 15 13 16 17 2 23 17 41 30 36 8 -3 14 0 14 6
0 7 6 11 13 10 24 -3 37 1 37 12 0 8 -5 8 -15 -1 -10 -9 -15 -9 -15 -1 0 6 6
12 13 13 6 0 17 2 22 2 26 3 56 45 60 84 2 23 -1 42 -6 42 -5 0 -9 9 -9 20 0
11 -5 20 -10 20 -7 0 -7 6 -2 17 5 10 7 24 5 31 -8 21 16 40 57 47 22 4 38 12
37 18 -1 7 4 11 11 10 7 -2 12 7 12 23 0 14 5 34 11 46 9 16 7 22 -9 34 -10 7
-25 27 -32 44 -8 18 -20 30 -32 30 -10 0 -21 6 -24 14 -6 15 -40 10 -83 -13
-30 -16 -28 -1 15 94 59 133 83 214 101 337 l17 118 22 -25 c12 -14 27 -25 33
-25 6 0 14 -7 17 -15 4 -8 10 -12 15 -9 5 3 19 -7 32 -22 12 -15 57 -63 100
-107 43 -45 86 -93 95 -109 9 -15 20 -28 26 -28 5 0 14 -7 20 -15 6 -9 28 -18
49 -21 56 -7 159 -32 168 -41 5 -5 2 -31 -6 -58 -9 -27 -12 -56 -8 -65 8 -18
10 -28 12 -56 0 -12 27 -50 59 -85 32 -35 69 -80 82 -99 14 -19 33 -44 43 -55
10 -11 20 -29 23 -41 6 -24 -11 -64 -27 -64 -6 0 -3 -7 5 -16 9 -8 20 -13 25
-10 12 8 36 -23 49 -61 11 -33 10 -35 -23 -33 -3 1 -13 -6 -21 -15 -19 -19
-25 -19 -50 -1 -18 13 -15 15 34 22 35 4 52 11 52 21 0 10 -6 12 -19 8 -21 -6
-38 10 -21 20 20 12 11 32 -13 28 -16 -3 -26 2 -35 19 -9 15 -32 29 -73 42
-61 19 -67 18 -119 -13 -28 -17 -75 -34 -85 -32 -5 2 -7 0 -3 -4 10 -11 -63
-85 -84 -85 -10 0 -18 -4 -18 -8 0 -7 -25 -13 -60 -14 -8 0 -34 -8 -57 -19
-24 -10 -46 -19 -51 -19 -5 0 -17 -8 -28 -18 -10 -10 -28 -21 -38 -25 -19 -7
-19 -8 0 -22 15 -11 16 -15 4 -15 -10 -1 -9 -4 5 -10 30 -13 45 -12 45 4 0 8
6 16 13 18 21 8 88 -1 103 -13 18 -14 64 6 64 28 0 7 8 14 18 15 41 4 49 5 92
13 25 5 50 7 55 6 6 -2 55 -4 110 -5 55 -2 103 -4 108 -5 13 -2 7 -21 -7 -21
-26 0 -25 -38 3 -71 l27 -32 126 5 126 4 28 34 c16 18 41 51 56 72 32 43 47
47 73 18 19 -21 23 -59 11 -102 l-8 -28 721 0 c544 0 721 3 721 12 0 6 -6 19
-14 27 -8 9 -32 50 -54 91 -21 41 -60 113 -85 161 -26 47 -49 96 -51 110 -2
13 -5 24 -6 24 -3 0 -11 39 -19 85 -8 48 -25 85 -67 147 -33 49 -110 192 -119
220 -8 29 5 24 92 -28 135 -83 199 -104 102 -34 -35 25 -48 40 -40 45 18 10
-14 39 -50 47 -22 4 -27 9 -19 18 11 14 -17 30 -73 40 -46 9 -45 31 5 70 28
22 42 44 54 83 8 28 20 52 25 52 15 0 23 -30 11 -42 -7 -7 -7 -17 1 -32 18
-32 27 -36 94 -36 62 0 63 0 88 40 14 23 30 52 35 65 8 20 17 25 43 25 45 0
100 55 101 102 1 33 1 33 71 46 121 22 161 24 175 7 7 -8 25 -15 40 -15 65 0
89 -11 95 -44 10 -47 64 -125 99 -143 17 -8 43 -27 58 -41 25 -23 32 -24 85
-18 31 4 65 14 75 23 9 8 23 13 30 10 7 -2 17 -5 22 -5 5 0 13 -6 17 -14 5 -8
9 26 10 82 0 52 2 291 3 531 l3 436 -35 -24 c-34 -22 -54 -26 -53 -10 0 4 20
22 43 40 41 32 43 35 46 92 1 46 0 56 -9 42 -10 -17 -167 -102 -175 -94 -2 2
39 41 91 86 l95 82 0 57 c-1 55 -1 56 -15 31 -16 -29 -110 -104 -300 -237 -71
-50 -184 -130 -250 -177 -66 -47 -156 -103 -200 -126 -83 -41 -268 -104 -263
-89 6 17 143 121 246 187 56 36 100 68 98 71 -6 5 45 67 110 137 22 24 42 58
49 85 13 48 18 51 117 65 31 4 69 20 110 48 73 49 210 176 203 188 -3 4 7 23
23 41 41 47 55 76 58 128 2 25 6 61 9 80 3 19 2 30 -2 24 -21 -30 -286 -179
-405 -228 -21 -8 -38 -20 -38 -25 0 -6 -9 -11 -19 -11 -20 0 -24 -6 -51 -82
-16 -46 -16 -47 7 -70 19 -19 22 -30 17 -56 -5 -26 -13 -34 -44 -43 -21 -7
-45 -9 -53 -6 -24 9 -27 72 -6 132 20 59 25 115 9 115 -5 0 -16 14 -25 30 -13
25 -22 30 -50 30 -32 0 -34 2 -24 19 8 11 9 26 4 37 -5 11 -9 21 -10 24 -9 35
-20 49 -41 53 -27 5 -50 -23 -40 -49 3 -8 1 -14 -4 -14 -16 0 -60 -54 -60 -73
0 -24 23 -68 49 -91 11 -10 18 -23 14 -28 -6 -11 -107 -58 -124 -58 -16 0 -6
44 25 115 24 57 25 69 24 215 l-1 155 -7 -120 c-8 -118 -36 -235 -60 -243 -6
-2 -10 -13 -10 -24 0 -17 -3 -18 -15 -8 -8 6 -13 17 -12 23 3 16 -26 15 -39
-2 -27 -35 -19 13 17 104 21 55 41 110 43 123 5 22 -8 30 -19 12 -9 -15 -35
-12 -35 3 0 8 11 27 25 43 24 28 31 44 19 44 -13 0 -114 -112 -109 -120 3 -6
2 -18 -4 -27 -8 -16 -11 -15 -20 10 -14 37 -14 44 4 51 20 7 19 29 -3 49 -27
24 -32 21 -32 -18 0 -19 -4 -35 -9 -35 -5 0 -17 -3 -25 -6 -14 -5 -16 1 -12
47 3 30 3 45 0 34 -15 -54 -57 -171 -65 -179 -5 -6 -9 31 -10 90 l-1 99 -17
-126 c-16 -123 -26 -149 -61 -161 -7 -2 -45 -67 -84 -144 -42 -81 -78 -140
-87 -142 -23 -4 -43 49 -35 92 10 52 25 54 25 4 -1 -24 4 -54 9 -68 9 -21 11
-16 11 36 1 40 6 66 15 73 12 10 12 19 4 44 -6 18 -14 36 -18 40 -9 10 -50
-53 -50 -77 0 -9 -4 -16 -10 -16 -5 0 -10 15 -10 33 0 17 -4 39 -10 47 -17 27
-19 4 -5 -50 8 -30 15 -69 15 -86 0 -17 5 -45 11 -62 10 -30 5 -41 -82 -189
-179 -304 -300 -568 -314 -685 -4 -32 -1 -40 20 -54 21 -14 23 -19 13 -32 -11
-13 -10 -14 9 -4 12 7 35 13 50 14 15 1 38 8 51 16 12 8 22 12 22 9 0 -10
-109 -77 -125 -77 -9 0 -31 -10 -48 -22 -17 -12 -27 -16 -22 -9 5 9 3 12 -4
10 -7 -3 -13 -9 -13 -14 -1 -40 -103 -115 -208 -154 -94 -35 -261 -71 -355
-77 -194 -13 -352 30 -550 150 -218 132 -385 275 -499 429 -68 92 -90 136
-120 239 -37 128 -76 421 -57 432 20 13 40 -40 46 -124 7 -91 39 -299 56 -365
37 -139 79 -177 200 -179 29 0 56 6 75 19 16 11 31 20 34 21 13 2 126 58 130
64 3 3 19 16 36 28 23 16 31 29 32 54 1 34 -17 88 -30 88 -5 0 -8 16 -8 35 0
44 31 106 65 133 14 11 25 25 25 31 0 6 13 14 30 17 16 4 28 11 27 17 -1 7 8
13 21 15 12 2 22 -1 22 -6 0 -6 16 -26 35 -45 19 -19 35 -38 35 -41 0 -4 8
-19 17 -33 10 -15 18 -31 18 -37 1 -12 9 -33 36 -93 10 -24 19 -54 19 -68 0
-14 5 -25 11 -25 24 0 -8 -24 -69 -51 -36 -16 -62 -32 -59 -36 4 -3 33 1 64 9
126 35 271 52 478 57 201 6 208 7 153 19 -69 16 -273 20 -428 8 l-115 -8 37
36 c20 20 35 36 32 36 -5 0 10 20 44 57 12 13 20 29 16 34 -3 5 -2 9 3 8 21
-4 44 2 39 9 -3 5 5 8 17 7 55 -5 267 145 301 214 33 66 37 121 22 301 -14
161 -14 220 3 220 35 1 313 50 327 59 17 9 17 10 2 11 -9 0 -34 19 -56 42
l-39 41 -46 -11 c-60 -16 -90 -15 -84 1 2 6 12 12 21 12 10 0 22 8 27 18 9 15
29 17 157 19 l147 1 -110 6 c-60 4 -120 12 -132 19 -54 30 -93 119 -79 177 12
48 74 104 134 121 67 20 191 14 301 -14 38 -10 68 -15 65 -10 -3 4 -12 8 -20
8 -8 0 -14 5 -14 10 0 6 -9 10 -20 10 -11 0 -20 5 -20 10 0 15 46 12 87 -5 19
-8 40 -15 46 -15 19 0 -6 16 -63 40 -30 12 -138 62 -240 110 -191 91 -392 168
-493 191 -32 7 -60 16 -62 19 -3 4 3 22 12 40 22 44 5 145 -29 173 -23 18 -22
18 68 14 97 -6 163 -25 364 -107 58 -23 130 -51 160 -63 69 -25 83 -37 122
-106 18 -31 61 -94 96 -141 70 -94 98 -140 83 -140 -6 0 -8 -7 -5 -15 10 -24
21 -17 28 15 6 34 -22 99 -78 178 -34 49 -28 65 25 60 28 -2 35 -8 37 -28 6
-50 33 -130 44 -130 7 0 8 11 4 33 -13 58 -37 201 -46 267 -5 36 -23 105 -40
155 -18 49 -33 112 -35 140 -3 80 -33 155 -81 202 -24 22 -58 71 -75 108 -44
90 -67 107 -134 99 -57 -7 -47 -13 -198 129 -21 20 -43 37 -48 37 -5 0 -9 4
-9 9 0 5 -17 16 -37 24 l-37 14 49 25 c28 14 96 42 153 61 56 20 117 47 135
60 17 13 55 33 82 45 l50 21 15 -25 c8 -13 18 -24 23 -24 4 0 5 -4 2 -10 -3
-5 8 -2 25 8 31 17 49 50 34 61 -29 21 -9 40 106 100 66 34 120 59 120 54 0
-4 4 -2 9 6 7 11 10 10 15 -6 9 -27 65 -52 93 -42 14 5 25 4 29 -3 4 -7 2 -14
-4 -16 -7 -2 -8 -11 -2 -27 8 -21 4 -28 -22 -48 l-31 -25 23 -12 c18 -10 25
-9 43 8 20 18 59 31 97 34 20 1 50 28 50 45 0 7 5 13 10 13 6 0 10 11 10 24 0
13 7 29 15 36 8 7 15 9 15 5 0 -4 6 -2 14 4 10 8 16 9 21 1 10 -16 17 -13 73
40 30 28 58 50 64 50 7 0 9 -27 5 -82 -3 -45 -2 -76 2 -69 24 38 29 -465 6
-652 -8 -67 -26 -158 -43 -210 -69 -211 -104 -329 -100 -332 2 -3 24 56 49
129 25 78 46 127 50 118 9 -25 58 167 74 288 5 41 8 45 33 45 15 1 36 4 48 8
20 7 21 4 27 -120 12 -236 8 -514 -8 -576 -18 -69 -19 -80 -4 -71 6 3 15 0 20
-7 5 -9 9 12 10 56 1 94 7 110 44 112 50 3 130 52 159 98 25 41 33 65 19 65
-3 0 -49 -32 -100 -71 -52 -39 -97 -68 -100 -65 -15 14 12 59 59 97 99 81 330
314 365 369 20 30 57 78 82 106 52 56 198 260 226 313 14 29 18 70 22 273 l4
238 -68 0 -69 0 -39 -52 c-115 -154 -180 -263 -234 -393 -45 -108 -93 -180
-154 -229 -70 -55 -71 -52 -23 37 43 79 111 265 100 276 -2 2 -21 -3 -40 -13
-20 -9 -39 -15 -41 -12 -3 2 14 37 38 78 40 70 55 92 161 241 l48 67 -38 0
c-30 0 -41 -5 -55 -27 -9 -16 -33 -46 -52 -68 l-36 -40 6 68 6 67 -409 0 -409
0 -69 -48 c-104 -73 -335 -205 -486 -276 -224 -107 -448 -192 -448 -170 0 3 5
14 11 25 6 11 11 33 11 49 1 16 4 27 9 25 4 -3 5 3 2 14 -4 15 18 34 104 91
203 136 404 255 463 274 l45 15 -43 0 c-27 1 -54 -6 -70 -17 -15 -10 -70 -43
-122 -72 -52 -29 -162 -97 -245 -150 -82 -54 -208 -130 -280 -170 -160 -91
-277 -165 -375 -239 -113 -86 -241 -174 -245 -169 -5 5 127 229 171 291 20 27
34 53 32 58 -2 6 -24 -5 -48 -24 -25 -19 -56 -40 -69 -47 l-25 -13 20 32 c53
83 137 169 172 176 9 2 19 4 22 5 3 1 10 3 15 4 16 2 95 49 95 57 0 4 10 9 23
13 28 7 108 71 100 80 -3 3 -2 6 4 6 6 0 11 6 10 13 -1 46 6 55 85 103 46 27
89 52 98 56 11 5 9 7 -8 7 -12 1 -39 -10 -60 -22 -20 -13 -89 -53 -152 -88
-91 -51 -135 -84 -213 -158 -53 -52 -113 -117 -132 -145 -20 -28 -60 -82 -90
-121 -31 -38 -87 -115 -125 -170 -68 -98 -196 -257 -300 -372 -49 -55 -52 -56
-47 -28 15 88 61 204 168 419 66 131 119 244 119 250 -2 37 -197 -250 -270
-394 -97 -193 -238 -568 -301 -800 -53 -195 -16 146 42 385 34 139 33 135 15
135 -15 0 -20 -11 -31 -70 -11 -57 -57 -189 -70 -200 -9 -7 -21 -7 -40 0 -25
10 -27 14 -21 50 4 24 2 40 -3 40 -13 0 -27 -50 -48 -167 -9 -51 -20 -90 -23
-88 -4 3 -10 46 -14 97 -3 51 -10 122 -13 158 l-8 65 -5 -82 c-5 -75 -20 -116
-35 -101 -10 9 -10 66 -1 148 7 61 6 73 -5 63 -7 -7 -16 -39 -20 -72 -7 -60
-40 -121 -66 -121 -9 0 -13 -16 -14 -52 0 -29 -1 -197 -3 -373 -1 -205 -6
-327 -13 -339 -9 -16 -12 -7 -22 50 -7 38 -23 110 -36 159 -40 150 -73 313
-89 451 -16 128 -16 134 9 330 22 172 54 328 85 408 8 23 9 23 66 9 44 -11 63
-12 76 -4 22 14 75 14 83 1 11 -18 41 -10 67 18 14 15 51 77 81 137 75 148 90
165 148 169 26 2 53 7 59 11 7 4 27 10 44 12 17 2 41 6 52 7 24 3 73 35 94 62
20 23 196 146 248 172 23 12 51 22 61 22 11 0 21 3 23 8 3 8 62 42 72 42 4 0
-5 -20 -19 -43 -27 -48 -35 -86 -10 -53 21 28 66 55 81 49 8 -3 14 -14 14 -24
0 -10 6 -19 13 -19 14 0 101 56 160 103 42 33 94 51 100 34 5 -14 77 17 77 33
0 7 -265 10 -800 10 l-800 0 -27 -52 -28 -53 -5 50 -5 50 -62 3 -63 3 -1 -33
c-1 -18 -4 -100 -8 -183 l-6 -150 -22 67 c-15 44 -25 107 -29 183 l-7 115 -40
0 -40 0 7 -92 c12 -154 34 -281 81 -465 25 -97 43 -178 40 -181 -8 -9 -113
219 -132 288 -14 51 -18 101 -17 230 0 91 3 177 7 193 l7 27 -120 0 -120 0 5
-67 c15 -221 15 -229 -1 -208 -32 42 -113 192 -126 233 -10 32 -18 42 -35 42
-19 0 -22 -7 -29 -67 -13 -120 -7 -294 15 -452 22 -164 26 -211 13 -211 -4 0
-37 27 -74 60 -36 33 -69 60 -72 60 -10 0 -7 -178 5 -317 12 -153 12 -152 165
-309 93 -95 190 -174 214 -174 4 0 -17 46 -46 103 -30 56 -65 137 -79 179 -25
79 -95 481 -116 668 -14 127 -15 366 -2 399 9 23 11 22 27 -25 9 -27 37 -114
62 -193 87 -278 178 -462 304 -614 78 -95 146 -190 172 -242 26 -50 66 -225
73 -315 4 -47 22 -156 41 -244 19 -87 33 -164 31 -170 -5 -14 -58 125 -90 234
-47 162 -119 303 -253 495 -37 53 -41 34 -19 -93 17 -103 68 -246 116 -325 16
-26 29 -49 29 -52 0 -20 139 -230 147 -221 2 2 -11 26 -30 53 -43 60 -159 277
-192 358 -25 62 -41 124 -54 208 -19 116 36 11 104 -199 43 -130 69 -191 124
-288 39 -68 71 -133 71 -144 0 -11 11 -29 24 -39 13 -10 30 -32 38 -48 21 -42
60 -163 56 -175 -2 -5 -43 36 -93 92 -186 208 -281 292 -550 487 -77 56 -175
134 -218 172 l-77 70 0 640 c0 421 -3 639 -10 639 -7 0 -10 -854 -10 -2560z
m1413 2168 c-41 -59 -92 -146 -113 -194 -33 -72 -43 -84 -54 -74 -8 6 -12 18
-9 26 3 8 0 14 -6 14 -12 0 3 43 25 70 6 8 14 27 18 42 3 15 22 53 41 85 19
32 35 67 35 79 0 28 49 72 85 76 57 6 54 -11 -22 -124z m3517 124 c0 -5 -13
-27 -29 -48 -31 -43 -81 -92 -81 -80 0 8 55 91 78 119 16 18 32 23 32 9z
m-140 -358 c0 -13 -36 -33 -58 -34 -33 0 -22 23 14 31 42 10 44 10 44 3z m40
-91 c-11 -8 -18 -19 -14 -24 3 -5 2 -8 -3 -7 -5 2 -35 -26 -67 -62 -32 -36
-65 -69 -74 -74 -10 -5 -21 -15 -25 -23 -4 -7 -15 -13 -23 -13 -10 0 -13 -7
-8 -24 6 -26 -24 -66 -51 -66 -8 0 -19 -9 -25 -20 -6 -11 -19 -20 -30 -20 -10
0 -20 -5 -22 -12 -2 -6 -21 -13 -42 -14 -50 -2 -99 44 -90 85 4 14 10 30 14
34 4 5 2 25 -5 45 -14 38 -10 62 9 62 7 0 6 3 -2 9 -9 5 3 10 35 15 27 3 59
13 71 22 12 8 36 16 52 16 19 1 30 6 30 15 0 19 22 41 46 45 10 2 22 7 25 12
4 5 13 5 20 1 21 -13 77 -14 88 -1 5 6 32 12 60 12 47 1 49 0 31 -13z m-2290
-168 c-17 -20 -67 -56 -83 -59 -7 -1 -30 -8 -52 -14 -71 -21 -169 -41 -178
-35 -4 2 -3 11 4 19 7 8 12 28 11 44 0 16 4 32 9 35 16 10 130 22 218 24 74 1
82 -1 71 -14z m195 9 c9 -4 37 -37 60 -73 24 -36 64 -93 89 -127 l44 -60 -45
-47 c-38 -40 -50 -47 -84 -47 -22 0 -65 10 -97 21 -31 12 -84 23 -117 26 -33
3 -75 13 -92 24 -18 10 -33 14 -33 9 0 -6 -4 -10 -10 -10 -21 0 -8 34 41 108
43 64 46 72 20 48 -17 -17 -31 -26 -31 -20 0 5 34 42 76 82 70 67 79 72 119
72 24 0 51 -3 60 -6z m-1865 -24 c0 -30 -27 -90 -40 -90 -6 0 -8 -4 -5 -10 3
-5 1 -18 -4 -27 -8 -14 -10 -6 -11 35 0 39 6 62 21 83 24 34 39 37 39 9z
m2091 -14 c31 -9 64 -23 75 -30 18 -14 18 -15 -1 -50 -20 -37 -72 -93 -79 -85
-5 6 -111 162 -121 178 -6 11 -1 13 31 9 21 -3 64 -13 95 -22z m-749 -26 c3
-17 0 -30 -6 -30 -6 0 -21 -15 -33 -33 -13 -18 -31 -42 -40 -53 -10 -11 -35
-44 -55 -74 -64 -95 -99 -123 -163 -128 -43 -3 -55 -1 -55 10 0 18 46 90 108
171 27 34 54 73 61 85 14 25 122 82 157 82 16 0 23 -7 26 -30z m-1442 2 c0 -9
-3 -27 -6 -40 -5 -18 -9 -20 -20 -11 -22 18 -18 64 6 66 13 1 20 -4 20 -15z
m2550 -142 c23 -18 23 -20 5 -20 -11 0 -26 9 -33 20 -15 25 -4 25 28 0z m1061
-40 c5 0 9 5 9 12 0 24 13 -3 15 -31 2 -18 -2 -29 -9 -28 -7 1 -12 -19 -14
-53 -6 -104 -19 -71 -19 47 0 65 2 103 4 86 2 -18 8 -33 14 -33z m-1351 39 c0
-11 44 -85 118 -197 19 -29 32 -55 29 -59 -12 -11 -63 43 -117 124 -30 45 -58
83 -62 83 -12 0 -9 35 4 48 15 15 28 15 28 1z m403 -144 c27 -86 50 -187 45
-201 -1 -5 5 -20 14 -34 9 -14 19 -36 23 -49 l7 -24 -48 27 c-27 15 -62 42
-78 59 l-29 30 6 106 c7 124 17 185 27 174 4 -4 19 -44 33 -88z m-435 8 c23
-37 38 -69 32 -71 -6 -2 -31 3 -57 12 -26 9 -54 16 -64 16 -10 0 -21 5 -24 10
-8 14 42 100 58 100 7 0 31 -30 55 -67z m-2967 -233 l2 -145 102 -105 c128
-131 207 -238 275 -371 93 -181 178 -324 230 -383 71 -81 65 -91 -25 -41 -22
13 -48 21 -57 20 -10 -2 -18 1 -18 6 0 5 -5 9 -11 9 -6 0 10 -24 35 -52 25
-29 46 -56 46 -61 0 -13 -106 51 -139 84 -32 32 -51 37 -51 14 0 -16 54 -75
70 -75 11 0 9 -27 -3 -47 -4 -6 -16 -9 -27 -6 -16 4 -20 0 -20 -20 0 -45 10
-57 49 -57 43 -1 71 -19 71 -49 0 -21 3 -28 34 -88 9 -18 15 -33 12 -33 -3 0
-39 16 -82 35 -42 19 -82 35 -89 35 -17 0 -33 -47 -28 -80 17 -116 137 -331
268 -481 39 -46 157 -149 169 -149 4 0 -18 30 -47 68 -75 92 -117 162 -161
265 -37 88 -45 143 -11 77 10 -19 40 -66 67 -104 26 -38 48 -73 48 -78 0 -13
85 -144 127 -195 19 -24 31 -43 28 -43 -4 0 3 -9 16 -21 13 -11 18 -17 10 -13
-10 5 -12 3 -5 -7 10 -17 12 -79 2 -79 -5 0 -8 -13 -8 -28 0 -19 12 -40 40
-67 114 -112 -71 22 -209 151 -137 128 -267 277 -279 321 -51 181 -124 343
-171 378 -18 13 -22 14 -13 3 7 -9 9 -19 4 -22 -12 -7 -44 28 -35 39 5 4 2 5
-4 1 -17 -10 -16 -44 2 -97 l15 -44 -35 40 c-19 22 -48 63 -65 91 -35 59 -72
84 -100 66 -14 -9 -20 -8 -23 1 -3 7 -6 -4 -6 -23 -1 -44 26 -96 98 -185 32
-38 61 -76 65 -83 19 -32 -34 10 -86 68 -30 33 -60 60 -66 60 -6 0 -13 -21
-15 -47 -2 -27 -4 44 -5 157 -1 113 -4 230 -7 260 -4 50 -4 52 5 15 4 -22 11
-61 15 -87 5 -43 27 -69 44 -53 3 4 -7 54 -23 113 -42 158 -44 180 -45 502 -1
283 9 793 15 787 2 -1 4 -68 5 -147z m1841 -27 c20 -23 29 -63 31 -141 l2 -63
-97 -50 c-54 -27 -98 -47 -98 -43 0 20 100 265 123 302 11 17 21 15 39 -5z
m-700 -78 c16 -30 22 -65 26 -142 5 -108 -4 -201 -18 -187 -12 12 -49 242 -54
334 -4 68 -3 73 11 55 8 -11 24 -38 35 -60z m941 -289 c85 -36 116 -117 75
-196 -27 -52 -80 -86 -167 -107 -77 -18 -282 -17 -326 1 -36 15 -98 99 -109
148 -6 25 -1 31 41 58 51 32 171 81 256 105 61 17 180 13 230 -9z m378 -303
c11 -52 17 -98 14 -103 -3 -4 -24 -11 -48 -15 -23 -4 -63 -18 -89 -31 -26 -13
-64 -24 -84 -24 -20 0 -48 -9 -65 -21 -16 -11 -29 -18 -29 -14 0 3 -10 -1 -22
-9 -13 -9 -31 -13 -46 -9 -15 3 -23 2 -19 -4 3 -5 0 -10 -7 -10 -8 0 -12 6 -9
14 3 7 1 13 -5 13 -6 0 -9 -11 -8 -24 2 -19 -3 -26 -23 -32 -34 -9 -111 -11
-136 -3 -11 3 -33 1 -50 -6 -65 -26 -92 -26 -110 1 -16 24 -16 30 1 97 9 40
22 75 27 79 7 4 5 15 -5 31 l-16 24 93 1 c152 3 227 28 333 111 28 23 59 41
67 41 23 0 54 18 99 56 21 18 43 31 48 28 5 -3 8 -2 7 3 -1 4 -1 15 0 23 3 32
64 -129 82 -217z m1649 -181 c0 -10 -7 -19 -15 -19 -15 0 -20 18 -8 30 12 13
23 7 23 -11z m-152 -17 c-3 -3 -9 2 -12 12 -6 14 -5 15 5 6 7 -7 10 -15 7 -18z
m-1423 -87 c27 -155 33 -237 21 -308 -13 -73 -30 -100 -66 -100 -19 0 -50 50
-50 81 0 13 11 82 25 154 13 71 27 147 30 168 7 47 32 50 40 5z m-475 -9 c0 7
5 9 11 5 8 -4 7 -9 -2 -16 -11 -7 -9 -9 6 -7 45 3 65 -2 65 -16 0 -8 5 -15 10
-15 6 0 10 -7 10 -15 0 -19 -29 -32 -39 -18 -3 6 -23 13 -43 17 -41 7 -58 24
-37 36 10 7 10 12 -2 27 -13 16 -13 17 4 4 12 -9 17 -10 17 -2z m-2030 -794
c15 -22 59 -87 99 -145 39 -58 109 -150 155 -205 46 -55 90 -113 98 -130 46
-90 19 -70 -181 135 l-211 215 1 105 c1 58 4 96 6 85 3 -11 18 -38 33 -60z
m105 -722 c105 -100 133 -120 220 -163 55 -26 127 -55 160 -64 33 -8 87 -25
120 -37 139 -49 282 -73 335 -56 24 8 24 7 6 -7 -22 -17 -450 -157 -486 -158
-3 0 -15 -4 -27 -9 -13 -5 -33 -4 -45 1 -21 8 -21 9 -3 10 39 2 -49 63 -189
133 -135 67 -177 77 -186 44 -4 -16 -7 -16 -25 -3 -26 19 -31 125 -26 520 l5
301 10 -199 11 -199 120 -114z m486 261 c41 -32 104 -80 140 -106 49 -35 68
-55 71 -75 3 -15 9 -37 13 -48 4 -11 -12 0 -35 25 -100 106 -147 153 -173 172
l-29 21 20 -40 c11 -21 46 -71 77 -111 31 -40 55 -76 51 -79 -7 -7 -132 93
-205 166 -53 53 -89 109 -153 245 l-28 59 88 -85 c49 -46 122 -111 163 -144z
m1018 50 c16 -27 18 -35 7 -31 -11 5 -16 -4 -19 -36 -3 -36 -4 -34 -5 15 -1
31 -5 63 -8 72 -11 28 3 17 25 -20z m2145 -36 c20 -9 23 -14 15 -25 -15 -17
-53 -17 -68 1 -10 11 -8 17 6 25 22 13 18 13 47 -1z m-3541 -210 c49 -54 85
-98 81 -98 -3 0 -35 20 -70 45 -34 25 -67 45 -72 45 -5 0 -26 12 -47 26 -21
14 -44 23 -51 20 -16 -6 -29 15 -37 62 -5 22 -3 32 6 32 8 0 8 3 -2 9 -7 5
-10 14 -7 20 4 6 12 8 18 5 6 -4 8 2 4 17 -5 17 7 9 41 -31 26 -30 88 -98 136
-152z m3950 158 c17 -44 -32 -80 -96 -69 -20 3 -37 9 -37 12 0 10 52 57 70 64
28 10 58 7 63 -7z m-3039 -79 c28 -24 80 -63 116 -87 108 -72 130 -100 79
-100 -23 0 -179 97 -179 112 0 5 -4 7 -9 4 -4 -3 -17 4 -27 16 -11 12 -14 18
-8 15 7 -4 14 -1 17 6 3 9 -2 13 -16 12 -28 -2 -39 15 -24 34 7 9 7 12 1 8 -6
-3 -11 0 -11 8 0 22 4 20 61 -28z m436 -113 c0 -23 -44 -88 -93 -139 -60 -61
-175 -228 -239 -345 -20 -36 -56 -99 -80 -140 -24 -41 -52 -105 -62 -142 -10
-37 -24 -72 -31 -78 -7 -6 -11 -19 -8 -30 10 -37 -70 -251 -101 -270 -19 -12
-19 -9 -13 91 8 143 24 212 45 204 33 -13 49 -13 49 1 0 8 -2 12 -5 9 -2 -2
-11 3 -19 11 -8 8 -19 12 -24 9 -18 -12 -8 66 26 201 20 77 43 157 51 179 40
104 157 246 273 331 95 70 231 133 231 108z m2065 -116 c102 -107 129 -147
127 -185 -2 -25 5 -45 23 -69 27 -36 45 -104 28 -104 -16 0 -3 -52 22 -85 90
-123 128 -185 139 -229 4 -17 23 -56 41 -88 19 -31 37 -72 40 -91 6 -30 5 -33
-19 -32 -44 2 -72 48 -156 262 -80 200 -193 429 -286 579 -47 75 -59 123 -26
105 9 -5 40 -33 67 -63z m-256 -5 c16 -61 16 -200 0 -220 -8 -10 -17 -22 -21
-28 -35 -49 -58 -67 -92 -75 -71 -16 -124 8 -113 49 3 14 -3 23 -23 31 -16 7
-36 20 -45 30 -16 18 -16 21 1 57 13 27 26 39 44 41 61 7 170 74 203 126 24
35 34 33 46 -11z m-580 -315 c-30 -59 -165 -252 -216 -307 -54 -60 -56 -61
-75 -44 -24 22 -90 157 -117 242 -20 62 -28 131 -14 131 3 0 29 -17 57 -38 28
-21 65 -46 82 -56 l31 -18 89 57 c49 32 107 66 129 76 39 18 40 18 43 -1 2
-10 -2 -29 -9 -42z m-2744 -197 c73 -68 73 -68 -28 -120 l-57 -29 0 113 c0 62
-2 134 -5 161 l-5 49 16 -57 c14 -49 26 -67 79 -117z"/>
<path d="M1840 3240 c-86 -29 -113 -81 -69 -131 l20 -24 -6 23 c-9 33 8 27 28
-11 24 -44 65 -67 119 -67 55 0 86 17 116 60 17 26 22 45 20 79 -3 39 -8 49
-37 68 -43 29 -114 30 -191 3z m173 -118 c-3 -12 -10 -22 -15 -22 -5 0 -6 -5
-3 -10 8 -13 -18 -8 -27 5 -5 6 -8 5 -8 -2 0 -7 -4 -13 -9 -13 -22 0 -2 32 30
48 19 10 35 18 36 17 1 0 0 -11 -4 -23z"/>
<path d="M40 1098 c0 -20 84 -120 120 -144 48 -31 191 -59 253 -50 55 8 59 19
15 36 -18 8 -102 46 -187 87 -158 75 -201 90 -201 71z"/>
<path d="M4883 5108 c-26 -34 -25 -40 3 -24 56 30 61 36 33 36 -15 0 -31 -6
-36 -12z"/>
<path d="M3519 4859 c-12 -7 -4 -29 11 -29 5 0 14 8 19 18 11 20 -6 26 -30 11z"/>
<path d="M3596 4847 c-17 -13 -17 -15 10 -42 30 -30 75 -38 97 -16 9 10 7 17
-12 32 -12 10 -27 16 -33 13 -5 -3 -17 1 -27 10 -15 13 -20 14 -35 3z"/>
<path d="M5088 4434 c-15 -17 -46 -66 -69 -110 -50 -92 -90 -137 -206 -230
-124 -99 -169 -141 -160 -150 17 -17 154 96 294 242 152 158 176 194 171 248
l-3 32 -27 -32z"/>
<path d="M3596 4425 c-3 -9 -6 -24 -5 -33 0 -9 5 -4 10 12 9 32 6 48 -5 21z"/>
<path d="M3450 4346 c-16 -16 -12 -52 8 -76 l18 -22 32 33 c18 18 30 39 27 47
-3 7 -5 18 -5 23 0 12 -67 8 -80 -5z"/>
<path d="M5102 4289 c-8 -11 -9 -18 -3 -14 6 3 11 1 11 -5 0 -7 -7 -10 -15 -6
-18 7 -94 -71 -95 -96 0 -15 4 -16 28 -6 15 7 35 18 45 26 15 14 17 13 17 -3
0 -10 -42 -59 -92 -110 -85 -83 -197 -170 -406 -313 -89 -61 -103 -82 -49 -73
4 0 7 -3 7 -8 0 -5 -28 -26 -62 -47 -70 -43 -128 -91 -128 -107 0 -6 17 5 38
25 47 45 109 77 167 85 59 8 58 -5 -2 -62 -27 -25 -43 -45 -37 -45 5 0 26 16
45 36 35 36 101 75 172 100 63 22 41 -5 -54 -64 -146 -92 -191 -138 -104 -107
22 8 55 14 74 15 29 0 32 -2 21 -16 -8 -8 -30 -22 -49 -30 l-36 -15 25 -19
c32 -25 44 -25 79 1 50 36 55 17 12 -44 -41 -58 -42 -69 -3 -41 12 8 22 12 22
9 0 -3 9 -1 20 5 18 10 19 8 10 -15 -5 -14 -17 -36 -26 -50 -9 -14 -13 -25 -9
-25 5 0 0 -9 -10 -20 -17 -19 -17 -21 0 -40 10 -11 21 -20 25 -20 4 0 33 32
64 70 82 101 136 131 109 60 -9 -25 -9 -30 3 -30 24 0 16 -20 -13 -33 -30 -13
-44 -28 -65 -67 -7 -14 -21 -31 -30 -38 -10 -7 -18 -21 -17 -30 0 -10 3 -12 6
-4 2 6 14 12 26 12 15 0 48 28 99 82 42 45 80 80 83 76 3 -3 -7 -28 -23 -54
-36 -60 -47 -101 -31 -120 9 -11 6 -18 -12 -34 -13 -10 -27 -19 -30 -20 -4 0
-23 -20 -42 -43 l-36 -44 28 -1 c19 0 33 8 47 26 10 14 45 60 77 102 95 124
137 191 137 222 0 15 -5 28 -11 28 -8 0 -9 18 -4 57 6 47 13 213 9 213 0 0
-25 -8 -55 -18 -125 -43 -145 -36 -49 18 104 59 105 60 106 221 1 118 -1 136
-12 120 -16 -23 -145 -106 -229 -149 -62 -31 -143 -57 -152 -49 -2 3 20 20 51
39 30 18 99 60 153 92 110 67 162 103 181 125 15 19 16 65 1 55 -8 -5 -10 5
-5 32 19 124 19 127 5 119 -12 -7 -12 -6 -1 7 7 9 12 31 10 48 -3 30 -3 30
-16 9z"/>
<path d="M4846 4224 c-65 -56 -92 -94 -38 -55 32 23 119 111 110 111 -4 0 -36
-25 -72 -56z"/>
<path d="M3621 4166 c-6 -25 -12 -62 -12 -83 l-2 -38 -10 48 c-12 55 -33 65
-22 11 14 -79 39 -110 49 -61 8 36 18 167 13 167 -3 0 -10 -20 -16 -44z"/>
<path d="M3713 4133 c-26 -10 -14 -33 16 -31 25 2 28 5 20 20 -10 19 -15 20
-36 11z"/>
<path d="M1126 4008 c-10 -39 -7 -66 10 -72 22 -8 26 -8 19 4 -4 6 -8 27 -10
46 -4 44 -11 52 -19 22z"/>
<path d="M3681 3801 c-12 -8 -11 -19 2 -77 9 -38 19 -95 22 -127 4 -31 11 -55
16 -52 5 4 10 -25 11 -67 1 -71 1 -70 8 27 5 81 3 114 -12 175 -11 41 -23 87
-26 102 -5 20 -11 25 -21 19z"/>
<path d="M3755 3535 c3 -22 5 -57 5 -78 0 -23 4 -36 10 -32 14 9 11 74 -6 115
l-14 35 5 -40z"/>
<path d="M3133 3243 c-99 -13 -114 -139 -24 -200 19 -13 41 -23 50 -22 11 0
10 3 -5 9 -38 15 -66 61 -60 99 7 46 12 48 42 20 26 -24 57 -27 82 -7 15 13
16 50 1 65 -9 9 -7 11 9 6 33 -8 54 -39 54 -79 0 -25 3 -33 9 -23 27 43 -5
114 -59 128 -20 6 -44 10 -52 9 -8 -1 -29 -3 -47 -5z"/>
<path d="M3993 3095 c0 -22 2 -30 4 -17 2 12 2 30 0 40 -3 9 -5 -1 -4 -23z"/>
<path d="M4056 3114 c-5 -14 -4 -15 9 -4 17 14 19 20 6 20 -5 0 -12 -7 -15
-16z"/>
<path d="M5112 3109 c-1 -9 -11 -28 -22 -42 -20 -25 -27 -67 -12 -67 22 0 43
44 39 83 -2 23 -4 35 -5 26z"/>
<path d="M4065 3050 c-3 -6 1 -7 9 -4 18 7 21 14 7 14 -6 0 -13 -4 -16 -10z"/>
<path d="M4125 2966 c17 -13 32 -22 34 -20 8 7 -32 44 -48 44 -11 0 -6 -8 14
-24z"/>
<path d="M3310 2970 c-21 -7 -21 -8 -5 -9 11 0 27 4 35 9 18 11 5 11 -30 0z"/>
<path d="M4831 2944 c0 -11 3 -14 6 -6 3 7 2 16 -1 19 -3 4 -6 -2 -5 -13z"/>
<path d="M4105 2922 c-24 -13 -26 -17 -13 -20 10 -2 25 4 34 13 23 23 14 26
-21 7z"/>
<path d="M4784 2908 l-19 -23 23 19 c21 18 27 26 19 26 -2 0 -12 -10 -23 -22z"/>
<path d="M3307 2865 c-21 -7 -41 -16 -44 -19 -12 -11 22 -5 77 14 36 12 47 19
30 19 -14 0 -42 -6 -63 -14z"/>
<path d="M4930 2850 c-8 -5 -12 -11 -10 -14 3 -2 14 2 24 10 22 15 10 19 -14
4z"/>
<path d="M4850 2821 c-14 -11 -58 -35 -98 -55 -39 -20 -72 -39 -72 -42 0 -4 7
-4 15 0 8 3 15 0 15 -6 0 -21 58 1 129 49 39 26 71 52 71 56 0 5 -4 5 -10 2
-5 -3 -10 -1 -10 4 0 16 -11 13 -40 -8z"/>
<path d="M3211 2766 c-9 -11 -9 -16 0 -22 9 -5 7 -11 -7 -22 -12 -9 -14 -13
-4 -10 8 3 21 16 28 31 11 22 17 25 42 20 19 -3 30 -1 30 6 0 16 -75 14 -89
-3z"/>
<path d="M3147 2764 c-13 -13 -7 -26 9 -20 15 6 15 4 3 -10 -12 -14 -11 -16 6
-13 24 5 27 42 5 47 -9 1 -19 0 -23 -4z"/>
<path d="M3309 2738 c-12 -22 -11 -22 7 -8 10 8 20 15 22 16 2 1 -1 5 -7 8 -5
4 -15 -4 -22 -16z"/>
<path d="M3380 2741 c0 -5 5 -13 10 -16 6 -3 10 -2 10 4 0 5 -4 13 -10 16 -5
3 -10 2 -10 -4z"/>
<path d="M3265 2700 c-10 -11 -15 -23 -12 -27 4 -3 7 -1 7 5 0 7 7 12 15 12 8
0 15 7 15 15 0 20 -3 19 -25 -5z"/>
<path d="M3360 2710 c0 -7 -7 -10 -15 -6 -17 6 -21 -9 -4 -20 6 -3 18 0 26 9
10 10 11 17 4 21 -6 4 -11 2 -11 -4z"/>
<path d="M3727 2685 c-10 -21 -16 -40 -13 -42 7 -7 38 56 34 68 -2 6 -11 -6
-21 -26z"/>
<path d="M5111 2684 c0 -11 3 -14 6 -6 3 7 2 16 -1 19 -3 4 -6 -2 -5 -13z"/>
<path d="M3286 2661 c-3 -5 -14 -7 -24 -4 -10 2 -25 -3 -33 -13 -13 -16 -12
-17 15 -10 32 8 78 36 59 36 -7 0 -14 -4 -17 -9z"/>
<path d="M3407 2595 c-17 -19 -36 -35 -42 -35 -13 0 -65 -76 -65 -95 0 -32 19
-22 39 20 20 42 38 64 25 30 -7 -18 23 -68 36 -60 15 9 12 25 -5 25 -20 0 -19
23 5 69 14 28 27 40 49 44 22 5 29 11 25 22 -10 24 -34 17 -67 -20z"/>
<path d="M3297 2592 c2 -11 -7 -27 -24 -42 -15 -14 -21 -17 -14 -7 8 9 11 20
8 24 -4 3 -2 12 4 20 19 23 -10 15 -57 -14 -42 -27 -60 -50 -49 -61 3 -3 20 9
38 26 18 18 39 32 47 32 9 -1 -1 -15 -23 -33 l-37 -32 44 3 c38 3 48 9 69 40
24 38 25 62 2 62 -8 0 -11 -7 -8 -18z"/>
<path d="M3459 2559 c-29 -44 -40 -69 -30 -69 12 0 53 69 48 83 -1 5 -10 -1
-18 -14z"/>
<path d="M3510 2540 c-9 -6 -13 -26 -12 -65 1 -60 -12 -70 -34 -26 -14 27 -12
29 -71 -87 l-42 -83 29 18 c28 16 60 75 60 108 0 18 14 19 41 5 13 -8 19 -21
19 -48 0 -20 4 -43 9 -51 11 -18 33 -4 28 17 -2 10 5 34 15 54 22 45 22 48 3
48 -8 0 -17 -14 -21 -35 -3 -19 -10 -38 -15 -41 -11 -7 -11 31 1 121 5 38 8
71 7 72 -2 1 -9 -2 -17 -7z"/>
<path d="M3343 2413 c-12 -2 -27 -11 -35 -20 -11 -14 -10 -15 10 -9 27 9 28
-2 3 -46 -11 -18 -23 -51 -27 -73 -6 -36 -6 -39 9 -27 9 8 21 28 27 46 6 18
19 50 30 71 21 40 26 66 13 64 -5 -1 -18 -4 -30 -6z"/>
<path d="M2508 1660 c-65 -8 -118 -27 -118 -42 0 -16 342 11 359 28 22 22
-115 30 -241 14z"/>
<path d="M5101 844 c0 -11 3 -14 6 -6 3 7 2 16 -1 19 -3 4 -6 -2 -5 -13z"/>
<path d="M5103 600 c0 -36 2 -50 4 -32 2 17 2 47 0 65 -2 17 -4 3 -4 -33z"/>
<path d="M5113 455 c0 -33 2 -45 4 -27 2 18 2 45 0 60 -2 15 -4 0 -4 -33z"/>
<path d="M5103 320 c0 -25 2 -35 4 -22 2 12 2 32 0 45 -2 12 -4 2 -4 -23z"/>
<path d="M5093 160 c0 -36 2 -50 4 -32 2 17 2 47 0 65 -2 17 -4 3 -4 -33z"/>
<path d="M4796 99 c16 -30 85 -100 95 -97 5 2 -16 28 -47 58 -31 30 -53 48
-48 39z"/>
<path d="M1604 44 c7 -25 5 -26 -20 -20 -24 6 -26 5 -14 -9 9 -11 27 -15 62
-14 26 2 48 7 48 11 0 5 5 6 10 3 6 -3 10 1 10 10 0 12 -6 15 -20 11 -71 -21
-67 -21 -47 1 23 27 22 33 -9 33 -23 0 -25 -3 -20 -26z"/>
<path d="M1665 50 c3 -5 8 -10 11 -10 2 0 4 5 4 10 0 6 -5 10 -11 10 -5 0 -7
-4 -4 -10z"/>
</g>
</svg>
